HIERARCHY
ROOT Hips
{
	OFFSET 0.00 0.00 0.00
	CHANNELS 6 Xposition Yposition Zposition Yrotation Xrotation Zrotation
	JOINT Spine
	{
		OFFSET	0.0000	9.2263	1.5771
		CHANNELS 3 Xrotation Yrotation Zrotation
		JOINT Spine1
		{
			OFFSET	0.0000	16.2540	-0.1656
			CHANNELS 3 Xrotation Yrotation Zrotation
			JOINT Spine2
			{
				OFFSET	0.0000	13.6396	-1.2923
				CHANNELS 3 Xrotation Yrotation Zrotation
				JOINT Neck
				{
					OFFSET	0.0000	13.8774	-4.3542
					CHANNELS 3 Xrotation Yrotation Zrotation
					JOINT Neck1
					{
						OFFSET	0.0000	4.3400	0.9269
						CHANNELS 3 Xrotation Yrotation Zrotation
						JOINT Head
						{
							OFFSET	0.0000	4.0266	0.8585
							CHANNELS 3 Xrotation Yrotation Zrotation
							End Site
							{
								OFFSET 0.0000 23.0297 0.1231
							}
						}
					}
				}
				JOINT LeftShoulder
				{
					OFFSET	6.1442	10.1870	-3.7932
					CHANNELS 3 Zrotation Xrotation Yrotation
					JOINT LeftArm
					{
						OFFSET	12.3191	-1.1130	-1.7935
						CHANNELS 3 Zrotation Xrotation Yrotation
						JOINT LeftForeArm
						{
							OFFSET	27.6870	0.0000	0.0000
							CHANNELS 3 Xrotation Zrotation Yrotation
							JOINT LeftHand
							{
								OFFSET	27.8738	0.0000	0.0000
								CHANNELS 3 Zrotation Yrotation Xrotation
								JOINT LeftHandThumb1
								{
									OFFSET	2.3785	-1.0029	2.6209
									CHANNELS 3 Zrotation Xrotation Yrotation
									JOINT LeftHandThumb2
									{
										OFFSET	3.3624	-1.0029	2.8398
										CHANNELS 3 Zrotation Xrotation Yrotation
										JOINT LeftHandThumb3
										{
											OFFSET	4.5018	-1.3445	2.1783
											CHANNELS 3 Zrotation Xrotation Yrotation
											End Site
											{
												OFFSET 2.6000 -1.0000 1.0000
											}
										}
									}
								}
								JOINT LeftHandMiddle1
								{
									OFFSET	10.4639	0.6148	0.4298
									CHANNELS 3 Zrotation Xrotation Yrotation
									JOINT LeftHandMiddle2
									{
										OFFSET	5.7921	0.0000	0.0000
										CHANNELS 3 Zrotation Xrotation Yrotation
										JOINT LeftHandMiddle3
										{
											OFFSET	3.7132	0.0000	0.0000
											CHANNELS 3 Zrotation Xrotation Yrotation
											End Site
											{
												OFFSET 2.3000 0.0000 0.0000
											}
										}
									}
								}
								JOINT LeftHandIndex1
								{
									OFFSET	10.3945	0.6148	2.7055
									CHANNELS 3 Zrotation Xrotation Yrotation
									JOINT LeftHandIndex2
									{
										OFFSET	5.5493	0.0000	0.0000
										CHANNELS 3 Zrotation Xrotation Yrotation
										JOINT LeftHandIndex3
										{
											OFFSET	3.3911	0.0000	0.0000
											CHANNELS 3 Zrotation Xrotation Yrotation
											End Site
											{
												OFFSET 2.5000 0.0000 0.0000
											}
										}
									}
								}
								JOINT LeftHandRing1
								{
									OFFSET	10.3252	0.3211	-1.8755
									CHANNELS 3 Zrotation Xrotation Yrotation
									JOINT LeftHandRing2
									{
										OFFSET	5.4452	0.0000	0.0000
										CHANNELS 3 Zrotation Xrotation Yrotation
										JOINT LeftHandRing3
										{
											OFFSET	3.7132	0.0000	0.0000
											CHANNELS 3 Zrotation Xrotation Yrotation
											End Site
											{
												OFFSET 2.0000 0.0000 0.0000
											}
										}
									}
								}
								JOINT LeftHandPinky1
								{
									OFFSET	10.0130	-0.0783	-3.9671
									CHANNELS 3 Zrotation Xrotation Yrotation
									JOINT LeftHandPinky2
									{
										OFFSET	3.6763	0.0000	0.0000
										CHANNELS 3 Zrotation Xrotation Yrotation
										JOINT LeftHandPinky3
										{
											OFFSET	2.8113	0.0000	0.0000
											CHANNELS 3 Zrotation Xrotation Yrotation
											End Site
											{
												OFFSET 2.9000 0.0000 0.0000
											}
										}
									}
								}
							}
						}
					}
				}
				JOINT RightShoulder
				{
					OFFSET	-6.1402	10.1870	-3.7932
					CHANNELS 3 Zrotation Xrotation Yrotation
					JOINT RightArm
					{
						OFFSET	-12.3231	-1.1130	-1.7935
						CHANNELS 3 Zrotation Xrotation Yrotation
						JOINT RightForeArm
						{
							OFFSET	-27.6870	0.0000	0.0000
							CHANNELS 3 Xrotation Zrotation Yrotation
							JOINT RightHand
							{
								OFFSET	-27.8738	0.0000	0.0000
								CHANNELS 3 Zrotation Yrotation Xrotation
								JOINT RightHandThumb1
								{
									OFFSET	-2.5178	-0.9367	2.5137
									CHANNELS 3 Zrotation Xrotation Yrotation
									JOINT RightHandThumb2
									{
										OFFSET	-3.2638	-1.0870	2.9669
										CHANNELS 3 Zrotation Xrotation Yrotation
										JOINT RightHandThumb3
										{
											OFFSET	-4.4165	-1.3703	2.1350
											CHANNELS 3 Zrotation Xrotation Yrotation
											End Site
											{
												OFFSET -2.6000 -1.0000 1.0000
											}
										}
									}
								}
								JOINT RightHandIndex1
								{
									OFFSET	-10.4665	0.4896	2.7120
									CHANNELS 3 Zrotation Xrotation Yrotation
									JOINT RightHandIndex2
									{
										OFFSET	-5.3768	0.0000	0.0000
										CHANNELS 3 Zrotation Xrotation Yrotation
										JOINT RightHandIndex3
										{
											OFFSET	-3.3855	0.0000	0.0000
											CHANNELS 3 Zrotation Xrotation Yrotation
											End Site
											{
												OFFSET -2.6000 0.0000 0.0000
											}
										}
									}
								}
								JOINT RightHandMiddle1
								{
									OFFSET	-10.7596	0.4896	0.4278
									CHANNELS 3 Zrotation Xrotation Yrotation
									JOINT RightHandMiddle2
									{
										OFFSET	-5.6168	0.0000	0.0000
										CHANNELS 3 Zrotation Xrotation Yrotation
										JOINT RightHandMiddle3
										{
											OFFSET	-3.7364	0.0000	0.0000
											CHANNELS 3 Zrotation Xrotation Yrotation
											End Site
											{
												OFFSET -2.3000 0.0000 0.0000
											}
										}
									}
								}
								JOINT RightHandRing1
								{
									OFFSET	-10.4702	0.3879	-1.9363
									CHANNELS 3 Zrotation Xrotation Yrotation
									JOINT RightHandRing2
									{
										OFFSET	-5.4013	0.0000	0.0000
										CHANNELS 3 Zrotation Xrotation Yrotation
										JOINT RightHandRing3
										{
											OFFSET	-3.3916	0.0000	0.0000
											CHANNELS 3 Zrotation Xrotation Yrotation
											End Site
											{
												OFFSET -2.2000 0.0000 0.0000
											}
										}
									}
								}
								JOINT RightHandPinky1
								{
									OFFSET	-9.9715	-0.1191	-3.9540
									CHANNELS 3 Zrotation Xrotation Yrotation
									JOINT RightHandPinky2
									{
										OFFSET	-3.6528	0.0000	0.0000
										CHANNELS 3 Zrotation Xrotation Yrotation
										JOINT RightHandPinky3
										{
											OFFSET	-2.7820	0.0000	0.0000
											CHANNELS 3 Zrotation Xrotation Yrotation
											End Site
											{
												OFFSET -2.9000 0.0000 0.0000
											}
										}
									}
								}
							}
						}
					}
				}
			}
		}
	}
	JOINT LeftUpLeg
	{
		OFFSET	9.6338	-3.2733	0.0000
		CHANNELS 3 Xrotation Yrotation Zrotation
		JOINT LeftLeg
		{
			OFFSET	0.0000	-41.7300	-1.7300
			CHANNELS 3 Xrotation Yrotation Zrotation
			JOINT LeftFoot
			{
				OFFSET	0.0126	-39.1900	-0.8477
				CHANNELS 3 Xrotation Yrotation Zrotation
				JOINT LeftToeBase
				{
					OFFSET	-0.1833	-12.1931	8.2823
					CHANNELS 3 Xrotation Yrotation Zrotation
					End Site
					{
						OFFSET 0.0000 0.0000 10.1681
					}
				}
			}
		}
	}
	JOINT RightUpLeg
	{
		OFFSET	-9.6338	-3.2733	0.0000
		CHANNELS 3 Xrotation Yrotation Zrotation
		JOINT RightLeg
		{
			OFFSET	0.0000	-41.7300	-1.7300
			CHANNELS 3 Xrotation Yrotation Zrotation
			JOINT RightFoot
			{
				OFFSET	0.0126	-39.1900	-0.8477
				CHANNELS 3 Xrotation Yrotation Zrotation
				JOINT RightToeBase
				{
					OFFSET	-0.1833	-12.1931	8.2823
					CHANNELS 3 Xrotation Yrotation Zrotation
					End Site
					{
						OFFSET 0.0032 0.0000 10.1681
					}
				}
			}
		}
	}
}
MOTION
Frames: 4
Frame Time: 0.0333333
-4.6250 80.8414 13.1943 -32.3925 -25.4488 4.2641 6.5039 4.0599 5.4719 4.8505 3.6583 3.6047 4.8656 3.6457 3.5998 8.3919 -0.0962 1.6083 -0.0000 0.0000 -0.0000 -0.5952 0.4579 1.7484 -7.1801 3.7021 -9.4895 -66.0538 7.7687 -39.6090 0.0000 0.0000 -120.9689 39.2534 -17.3686 16.5184 -0.4775 5.0796 13.0539 -6.7521 -0.0830 19.4439 -8.6592 8.9037 48.9339 -61.6825 1.1255 1.5661 -71.4694 -0.6926 0.9626 -27.9118 -0.1181 0.4752 -60.5524 1.1418 4.4498 -64.4178 -0.5769 0.9157 -20.2067 -0.0625 0.3507 -71.6655 1.5685 0.1292 -69.0385 -0.6521 0.9481 -30.9817 -0.1448 0.5226 -75.2870 1.9216 1.1784 -67.7638 3.1508 -0.6086 -28.2237 -0.1207 0.4801 7.7719 11.6940 7.7261 65.7181 6.2534 60.3930 0.0000 0.0001 102.3064 -5.6289 13.1843 31.6345 1.1656 -1.2490 -18.1583 -0.7457 0.1963 -0.6962 -5.5508 6.5051 -25.9818 62.5481 1.0002 4.0519 71.2724 -1.5514 -2.1639 20.9885 -0.1516 -0.8182 71.4238 1.0337 -0.2981 71.8044 -1.5715 -2.1706 26.1431 -0.1832 -1.0183 76.8383 0.2257 -1.9542 69.9849 -1.5029 -2.1469 30.2902 -0.2750 -1.1607 83.2347 -0.3743 -3.8514 67.0654 -1.3946 -2.1043 31.3864 -0.3343 -1.1898 -16.8026 9.4010 18.5417 63.1087 -5.3046 3.6407 -20.5416 1.5892 -12.7277 -0.0001 0.0000 0.0000 9.3703 -16.3678 -19.7063 60.0531 -3.2923 -7.6789 -43.4723 -9.0636 18.8344 -0.0000 0.0000 -0.0000 
-4.2458 81.7752 12.3143 -32.4434 -23.5302 3.2731 6.9540 3.7097 5.1384 5.2605 3.3642 3.3293 5.2744 3.3483 3.3247 9.1814 0.0581 1.2463 -0.0000 0.0000 -0.0000 0.5292 1.0655 1.3459 -7.6477 3.7970 -9.7133 -66.0318 6.2806 -39.5689 -0.0000 -0.0000 -121.2960 38.1413 -15.7747 16.6019 -0.4654 4.7169 12.3096 -6.7210 -0.0878 19.3211 -8.6082 8.8485 48.7533 -61.5759 1.1129 1.4956 -71.4482 -0.6922 0.9625 -27.8706 -0.1178 0.4746 -60.3470 1.1203 4.2346 -64.4013 -0.5766 0.9156 -20.2094 -0.0625 0.3507 -71.5383 1.5582 0.1509 -69.0201 -0.6518 0.9479 -30.9713 -0.1447 0.5224 -74.7999 1.9240 1.2485 -67.8345 3.1515 -0.6035 -28.3134 -0.1215 0.4815 7.7519 10.7094 6.3731 65.4097 6.7326 60.2148 0.0000 0.0000 100.8036 -5.6950 13.0139 31.0589 1.3401 -1.3084 -18.0604 -0.7981 0.0514 -0.0926 -5.5163 5.9698 -24.5864 62.4968 0.9776 4.1118 71.0124 -1.5416 -2.1606 20.9731 -0.1513 -0.8177 71.2648 1.0289 -0.3048 71.7291 -1.5687 -2.1697 25.8291 -0.1769 -1.0071 76.6040 0.2389 -1.9442 69.8145 -1.4966 -2.1445 30.2174 -0.2720 -1.1586 82.8983 -0.3529 -3.8448 66.9590 -1.3907 -2.1026 31.2470 -0.3314 -1.1850 -18.3125 9.2463 19.0037 60.6523 -4.7559 3.7320 -18.6015 1.5624 -12.9770 -0.0001 -0.0000 -0.0000 7.6141 -15.6855 -18.0982 58.4612 -3.7957 -7.3111 -41.7155 -8.6300 18.4624 -0.0000 0.0000 0.0000 
-3.5679 83.1245 11.4656 -32.7037 -21.0560 2.3696 7.3897 3.3904 4.6888 5.6273 3.0977 3.0055 5.6395 3.0799 3.0012 10.2385 0.3231 0.7158 -0.0000 0.0000 -0.0000 1.4115 2.2367 0.5998 -8.4358 3.9393 -10.0020 -65.7687 4.0259 -39.3326 -0.0000 0.0000 -121.5286 37.1688 -14.3046 16.1504 -0.5938 4.3737 11.5845 -6.6706 -0.0947 19.1236 -8.5280 8.7664 48.4734 -61.4319 1.0981 1.3595 -71.4468 -0.6922 0.9625 -27.8278 -0.1174 0.4739 -60.0253 1.0788 3.8767 -64.4206 -0.5769 0.9157 -20.2149 -0.0625 0.3508 -71.3335 1.5594 0.1403 -68.9702 -0.6509 0.9476 -30.9439 -0.1445 0.5220 -74.0503 1.9296 1.3921 -67.8884 3.1521 -0.5996 -28.3922 -0.1221 0.4827 7.6801 9.8653 5.1982 64.5210 7.2522 60.5240 0.0000 0.0001 98.2754 -5.5294 12.8362 30.5617 1.3606 -1.3267 -18.0416 -0.8483 -0.0736 0.4204 -5.4950 5.6604 -23.7803 62.5313 0.9494 4.2071 70.8426 -1.5352 -2.1584 20.9707 -0.1513 -0.8176 71.1125 1.0183 -0.2965 71.6801 -1.5668 -2.1691 25.6259 -0.1730 -0.9998 76.5497 0.2354 -1.9534 69.7088 -1.4926 -2.1431 30.1653 -0.2711 -1.1567 82.8490 -0.3526 -3.8231 66.9100 -1.3889 -2.1018 31.1571 -0.3295 -1.1820 -19.6732 9.1305 19.0042 56.9787 -3.6478 3.6881 -16.0649 1.4507 -13.1887 -0.0078 0.0000 -0.0000 5.4990 -15.0477 -16.8419 55.7673 -4.0028 -6.6128 -39.1330 -7.9040 17.9487 0.0000 0.0000 -0.0000 
-2.6176 84.3527 10.6043 -33.5597 -18.2509 1.7569 8.0458 3.1204 3.9226 6.1504 2.8804 2.4503 6.1610 2.8619 2.4466 11.2644 0.7202 0.0600 -0.0000 0.0000 -0.0000 1.3092 4.3316 -0.7315 -8.5582 3.9044 -10.0123 -65.0961 0.8001 -39.4391 0.0000 -0.0000 -121.0877 34.9518 -12.9210 16.0997 -1.0216 3.7888 10.3231 -6.6143 -0.1018 18.9046 -8.4478 8.6993 48.2095 -61.3365 1.0891 1.1772 -71.5902 -0.6946 0.9633 -27.7860 -0.1171 0.4733 -59.7640 1.0311 3.4208 -64.5298 -0.5787 0.9166 -20.1543 -0.0622 0.3498 -71.1857 1.5757 0.0928 -68.9061 -0.6499 0.9472 -30.8437 -0.1436 0.5205 -73.3074 1.9411 1.6177 -68.0238 3.1535 -0.5897 -28.5280 -0.1233 0.4849 7.4317 9.3060 4.7033 63.5502 7.4061 61.7573 -0.0000 0.0000 95.8251 -4.6736 12.6648 29.9440 1.2761 -1.2882 -18.1302 -0.9040 -0.1980 0.9226 -5.4794 5.6105 -23.6742 62.4592 0.9074 4.3846 70.7175 -1.5304 -2.1567 21.0285 -0.1521 -0.8197 71.1250 0.9971 -0.3019 71.6190 -1.5645 -2.1683 25.5290 -0.1722 -0.9961 76.4647 0.2175 -1.9669 69.6255 -1.4895 -2.1419 30.1255 -0.2729 -1.1546 82.8225 -0.3541 -3.8248 66.8637 -1.3872 -2.1011 31.0880 -0.3281 -1.1796 -21.2591 8.9206 18.7045 53.4518 -2.0194 3.5239 -13.6037 1.3513 -13.3784 -0.0133 0.0000 -0.0000 2.5721 -14.0742 -15.9651 53.4412 -4.0540 -6.2366 -36.5435 -7.2285 17.5851 -0.0000 -0.0000 -0.0000 
